<svg width="60" height="60" viewBox="0 0 60 60" fill="none" xmlns="http://www.w3.org/2000/svg">
<g clip-path="url(#clip0_655_104)">
<path d="M30 7.5C35.4755 7.5048 40.7614 9.5061 44.867 13.1289C48.9727 16.7516 51.6164 21.7473 52.3028 27.1796C52.9892 32.6119 51.6711 38.1081 48.5955 42.6382C45.5199 47.1683 40.898 50.4214 35.5957 51.788C30.2935 53.1545 24.6749 52.5407 19.7928 50.0615C14.9107 47.5824 11.1002 43.408 9.07535 38.3207C7.05047 33.2333 6.95019 27.5822 8.79331 22.4262C10.6364 17.2703 14.2964 12.9633 19.0875 10.3125" stroke="white" stroke-width="2" stroke-linecap="round" stroke-linejoin="round"/>
<path d="M28.65 37.7229H19.025V36.0104L24.8 29.1979C25.8323 28.2357 26.4882 26.9373 26.65 25.5354C26.6594 25.1877 26.5962 24.8419 26.4644 24.5201C26.3326 24.1982 26.1351 23.9074 25.8845 23.6663C25.6339 23.4251 25.3358 23.2388 25.0092 23.1195C24.6825 23.0001 24.3345 22.9501 23.9875 22.9729C23.6394 22.9483 23.2901 22.9969 22.962 23.1155C22.6338 23.234 22.3341 23.42 22.0822 23.6614C21.8302 23.9027 21.6315 24.1941 21.499 24.5169C21.3664 24.8397 21.3029 25.1866 21.3125 25.5354H19.2875C19.2878 24.9325 19.412 24.3361 19.6524 23.7832C19.8928 23.2303 20.2443 22.7327 20.685 22.3213C21.1257 21.9099 21.6463 21.5934 22.2144 21.3916C22.7825 21.1897 23.386 21.1068 23.9875 21.1479C24.6025 21.0969 25.2213 21.1758 25.8038 21.3795C26.3864 21.5833 26.9195 21.9073 27.3686 22.3305C27.8178 22.7537 28.1729 23.2666 28.4108 23.836C28.6488 24.4054 28.7644 25.0184 28.75 25.6354C28.75 27.5854 27.325 29.1479 26.25 30.4104L21.7125 35.8729H28.65V37.7229Z" fill="white"/>
<path d="M38.2625 21.3359L32.85 33.2109H37.575V28.3859H39.6125V33.2109H41.1125V35.0609H39.6125V37.7234H37.575V35.0609H30.475V33.5734L36.25 21.3359H38.2625Z" fill="white"/>
</g>
<defs>
<clipPath id="clip0_655_104">
<rect width="60" height="60" fill="white"/>
</clipPath>
</defs>
</svg>
