<svg width="1257" height="598" viewBox="0 0 1257 598" fill="none" xmlns="http://www.w3.org/2000/svg">
<path d="M324.117 511L339.897 476.838H308.336L324.117 511Z" fill="#E8F7F7"/>
<path d="M0 191.831C0 184.745 5.34975 179 11.949 179H644.051C650.65 179 656 184.745 656 191.831V474.111C656 481.197 650.65 486.942 644.051 486.942H11.949C5.34975 486.942 0 481.197 0 474.111V191.831Z" fill="#E8F7F7"/>
<path d="M1112.06 390L1117.91 377.343H1106.22L1112.06 390Z" fill="#F3F1FE"/>
<path d="M992 271.754C992 269.128 993.982 267 996.426 267H1230.57C1233.02 267 1235 269.128 1235 271.754V376.333C1235 378.959 1233.02 381.087 1230.57 381.087H996.426C993.982 381.087 992 378.959 992 376.333V271.754Z" fill="#F3F1FE"/>
<path d="M978.238 333L991.493 304.394H964.983L978.238 333Z" fill="#232F5F"/>
<path d="M706 65.744C706 59.8102 710.493 55 716.036 55H1246.96C1252.51 55 1257 59.8102 1257 65.744V302.111C1257 308.045 1252.51 312.855 1246.96 312.855H716.036C710.493 312.855 706 308.045 706 302.111V65.744Z" fill="#232F5F"/>
<path d="M185.251 565L190.327 553.99H180.175L185.251 565Z" fill="#232F5F"/>
<path d="M81 462.135C81 459.851 82.7207 458 84.8434 458H288.157C290.279 458 292 459.851 292 462.135V553.111C292 555.395 290.279 557.246 288.157 557.246H84.8434C82.7207 557.246 81 555.395 81 553.111V462.135Z" fill="#232F5F"/>
<path d="M984.061 598L989.907 585.343H978.216L984.061 598Z" fill="#E8F7F7"/>
<path d="M864 479.754C864 477.128 865.982 475 868.426 475H1102.57C1105.02 475 1107 477.128 1107 479.754V584.333C1107 586.959 1105.02 589.087 1102.57 589.087H868.426C865.982 589.087 864 586.959 864 584.333V479.754Z" fill="#E8F7F7"/>
<path d="M167.061 206L172.907 193.343H161.216L167.061 206Z" fill="#ECEEFF"/>
<path d="M47 87.7536C47 85.1283 48.9817 83 51.4262 83H285.574C288.018 83 290 85.1283 290 87.7536V192.333C290 194.959 288.018 197.087 285.574 197.087H51.4262C48.9817 197.087 47 194.959 47 192.333V87.7536Z" fill="#ECEEFF"/>
<path d="M499.061 123L504.907 110.343H493.216L499.061 123Z" fill="#D2DEFC"/>
<path d="M379 4.75363C379 2.12827 380.982 0 383.426 0H617.574C620.018 0 622 2.12827 622 4.75362V109.333C622 111.959 620.018 114.087 617.574 114.087H383.426C380.982 114.087 379 111.959 379 109.333V4.75363Z" fill="#D2DEFC"/>
</svg>
