<svg width="60" height="60" viewBox="0 0 60 60" fill="none" xmlns="http://www.w3.org/2000/svg">
<g clip-path="url(#clip0_655_122)">
<path d="M18.3375 45.0016C19.2806 46.9425 19.6863 49.1007 19.5125 51.2516C20.5081 51.7467 21.5403 52.1646 22.6 52.5016C27.4125 47.2641 32.8 47.2641 37.6 52.5016C38.6597 52.1646 39.6919 51.7467 40.6875 51.2516C40.4 44.1516 44.2 40.3391 51.3 40.6391C51.7908 39.6415 52.2086 38.6096 52.55 37.5516C47.3125 32.7391 47.3125 27.3391 52.55 22.5516C52.2086 21.4935 51.7908 20.4616 51.3 19.4641C44.2 19.7641 40.4 15.9516 40.6875 8.85156C39.6919 8.35641 38.6597 7.93851 37.6 7.60156C32.7875 12.8391 27.4 12.8391 22.6 7.60156C21.5403 7.93851 20.5081 8.35641 19.5125 8.85156C19.8 15.9516 15.9875 19.7641 8.88751 19.4641C8.40717 20.4663 7.9897 21.4975 7.63751 22.5516C12.875 27.3641 12.875 32.7641 7.63751 37.5516C7.9897 38.6057 8.40717 39.6368 8.88751 40.6391C9.87297 40.5877 10.8611 40.6338 11.8375 40.7766" stroke="#232F5F" stroke-width="2" stroke-linecap="round" stroke-linejoin="round"/>
<path d="M22.6875 31.1393C22.4574 29.6729 22.6675 28.1713 23.2914 26.8244C23.9152 25.4776 24.9247 24.3461 26.1919 23.5733C27.4592 22.8005 28.9272 22.4211 30.4103 22.4831C31.8933 22.5452 33.3245 23.0458 34.5228 23.9218C35.7211 24.7977 36.6325 26.0095 37.1417 27.4038C37.6509 28.798 37.7349 30.312 37.3831 31.754C37.0314 33.1961 36.2596 34.5013 35.1656 35.5044C34.0716 36.5076 32.7045 37.1636 31.2375 37.3893C29.9739 37.5809 28.6822 37.4432 27.4875 36.9893" stroke="#232F5F" stroke-width="2" stroke-linecap="round" stroke-linejoin="round"/>
</g>
<defs>
<clipPath id="clip0_655_122">
<rect width="60" height="60" fill="white"/>
</clipPath>
</defs>
</svg>
