<svg width="60" height="60" viewBox="0 0 60 60" fill="none" xmlns="http://www.w3.org/2000/svg">
<path d="M47.5 33.75C50.2614 33.75 52.5 31.5114 52.5 28.75C52.5 25.9886 50.2614 23.75 47.5 23.75C44.7386 23.75 42.5 25.9886 42.5 28.75C42.5 31.5114 44.7386 33.75 47.5 33.75Z" stroke="#232F5F" stroke-width="2" stroke-linecap="round" stroke-linejoin="round"/>
<path d="M30 26.25C32.7614 26.25 35 24.0114 35 21.25C35 18.4886 32.7614 16.25 30 16.25C27.2386 16.25 25 18.4886 25 21.25C25 24.0114 27.2386 26.25 30 26.25Z" stroke="#232F5F" stroke-width="2" stroke-linecap="round" stroke-linejoin="round"/>
<path d="M42.5 15C45.2614 15 47.5 12.7614 47.5 10C47.5 7.23858 45.2614 5 42.5 5C39.7386 5 37.5 7.23858 37.5 10C37.5 12.7614 39.7386 15 42.5 15Z" stroke="#232F5F" stroke-width="2" stroke-linecap="round" stroke-linejoin="round"/>
<path d="M7.5 39.7969H15V56.0469H7.5V44.0969" stroke="#232F5F" stroke-width="2" stroke-linecap="round" stroke-linejoin="round"/>
<path d="M19.03 42.0158L21.25 39.7957C21.25 39.7957 30.1892 37.006 32.6105 36.328C35.0317 35.65 35.613 39.5935 34.3539 40.2853C33.0948 40.977 29.375 43.0055 29.375 43.0055L30 46.0457H42.5C42.5 46.0457 46.3956 44.0665 48.0421 43.2917C49.6886 42.5168 52.775 43.5823 53.75 44.8413C51.3351 46.4878 43.75 52.2957 43.75 52.2957L30 54.7957L16.25 54.3332" stroke="#232F5F" stroke-width="2" stroke-linecap="round" stroke-linejoin="round"/>
</svg>
