<svg width="60" height="60" viewBox="0 0 60 60" fill="none" xmlns="http://www.w3.org/2000/svg">
<g clip-path="url(#clip0_655_113)">
<path d="M37.625 42.5H50C50.663 42.5 51.2989 42.2366 51.7678 41.7678C52.2366 41.2989 52.5 40.663 52.5 40V12.5C52.5 11.837 52.2366 11.2011 51.7678 10.7322C51.2989 10.2634 50.663 10 50 10H10C9.33696 10 8.70107 10.2634 8.23223 10.7322C7.76339 11.2011 7.5 11.837 7.5 12.5V40C7.5 40.663 7.76339 41.2989 8.23223 41.7678C8.70107 42.2366 9.33696 42.5 10 42.5H22.4L30 50" stroke="white" stroke-width="2" stroke-linecap="round" stroke-linejoin="round"/>
<path d="M17.5 20.9375H42.5" stroke="white" stroke-width="2" stroke-linecap="round" stroke-linejoin="round"/>
<path d="M17.5 30.9375H32.5" stroke="white" stroke-width="2" stroke-linecap="round" stroke-linejoin="round"/>
</g>
<defs>
<clipPath id="clip0_655_113">
<rect width="60" height="60" fill="white"/>
</clipPath>
</defs>
</svg>
