<svg width="60" height="60" viewBox="0 0 60 60" fill="none" xmlns="http://www.w3.org/2000/svg">
<g clip-path="url(#clip0_648_82)">
<path d="M32.075 44.4C30.5825 44.7977 29.0446 44.9993 27.5 45C23.4513 44.9997 19.528 43.5956 16.3984 41.0269C13.2689 38.4582 11.1269 34.8839 10.3373 30.9129C9.5477 26.942 10.1594 22.8201 12.0682 19.2496C13.9769 15.6791 17.0647 12.8808 20.8053 11.3317C24.5459 9.78256 28.7079 9.57834 32.5822 10.7538C36.4565 11.9294 39.8034 14.4118 42.0525 17.7783C44.3017 21.1448 45.314 25.1871 44.9169 29.2162C44.5198 33.2454 42.738 37.0123 39.875 39.875" stroke="#232F5F" stroke-width="2" stroke-linecap="round" stroke-linejoin="round"/>
<path d="M50 50L39.875 39.875" stroke="#232F5F" stroke-width="2" stroke-linecap="round" stroke-linejoin="round"/>
</g>
<defs>
<clipPath id="clip0_648_82">
<rect width="60" height="60" fill="white"/>
</clipPath>
</defs>
</svg>
