<svg width="69" height="64" viewBox="0 0 69 64" fill="none" xmlns="http://www.w3.org/2000/svg">
<g clip-path="url(#clip0_648_31)">
<path d="M39.0833 28.3307H47.3333C47.7754 28.3307 48.1993 28.1551 48.5118 27.8426C48.8244 27.53 49 27.1061 49 26.6641V8.33073C49 7.8887 48.8244 7.46478 48.5118 7.15222C48.1993 6.83966 47.7754 6.66406 47.3333 6.66406H20.6667C20.2246 6.66406 19.8007 6.83966 19.4882 7.15222C19.1756 7.46478 19 7.8887 19 8.33073V26.6641C19 27.1061 19.1756 27.53 19.4882 27.8426C19.8007 28.1551 20.2246 28.3307 20.6667 28.3307H28.9333L34 33.3307" stroke="white" stroke-width="2" stroke-linecap="round" stroke-linejoin="round"/>
<path d="M27.3333 19.9974C28.2538 19.9974 29 19.2512 29 18.3307C29 17.4103 28.2538 16.6641 27.3333 16.6641C26.4129 16.6641 25.6667 17.4103 25.6667 18.3307C25.6667 19.2512 26.4129 19.9974 27.3333 19.9974Z" fill="white"/>
<path d="M34 19.9974C34.9205 19.9974 35.6667 19.2512 35.6667 18.3307C35.6667 17.4103 34.9205 16.6641 34 16.6641C33.0795 16.6641 32.3333 17.4103 32.3333 18.3307C32.3333 19.2512 33.0795 19.9974 34 19.9974Z" fill="white"/>
<path d="M40.6667 19.9974C41.5871 19.9974 42.3333 19.2512 42.3333 18.3307C42.3333 17.4103 41.5871 16.6641 40.6667 16.6641C39.7462 16.6641 39 17.4103 39 18.3307C39 19.2512 39.7462 19.9974 40.6667 19.9974Z" fill="white"/>
</g>
<g clip-path="url(#clip1_648_31)">
<path d="M50.25 43.4125L67.75 37.75V60.25L46.5 53.375" stroke="white" stroke-width="2" stroke-linecap="round" stroke-linejoin="round"/>
<path d="M46.5 44.6266L50.25 43.4141" stroke="white" stroke-width="2" stroke-linecap="round" stroke-linejoin="round"/>
<path d="M62.75 42.5469V58.3406" stroke="white" stroke-width="2" stroke-linecap="round" stroke-linejoin="round"/>
<path d="M46.5 47.125V53.375" stroke="white" stroke-width="2" stroke-linecap="round" stroke-linejoin="round"/>
<path d="M46.5 53.375H41.5V44.625H46.5" stroke="white" stroke-width="2" stroke-linecap="round" stroke-linejoin="round"/>
</g>
<g clip-path="url(#clip2_648_31)">
<path d="M25.625 35.875H4.375C2.99429 35.875 1.875 36.9943 1.875 38.375V59.625C1.875 61.0057 2.99429 62.125 4.375 62.125H25.625C27.0057 62.125 28.125 61.0057 28.125 59.625V38.375C28.125 36.9943 27.0057 35.875 25.625 35.875Z" stroke="white" stroke-width="2" stroke-linecap="round" stroke-linejoin="round"/>
<path d="M1.875 56.5016L11.3063 47.0703L17.2312 52.9953L21.175 49.0516L28.125 55.8766" stroke="white" stroke-width="2" stroke-linecap="round" stroke-linejoin="round"/>
<path d="M19.375 45.25C20.7557 45.25 21.875 44.1307 21.875 42.75C21.875 41.3693 20.7557 40.25 19.375 40.25C17.9943 40.25 16.875 41.3693 16.875 42.75C16.875 44.1307 17.9943 45.25 19.375 45.25Z" stroke="white" stroke-width="2" stroke-linecap="round" stroke-linejoin="round"/>
</g>
<defs>
<clipPath id="clip0_648_31">
<rect width="40" height="40" fill="white" transform="translate(14)"/>
</clipPath>
<clipPath id="clip1_648_31">
<rect width="30" height="30" fill="white" transform="translate(39 34)"/>
</clipPath>
<clipPath id="clip2_648_31">
<rect width="30" height="30" fill="white" transform="translate(0 34)"/>
</clipPath>
</defs>
</svg>
